Coordinates
version=1
nRows=33
nColumns=30
inDegrees=yes

Units are S.I. units (second, meters, Newtons, ...)
Angles are in degrees.

endheader
time	floatyaw	floatroll	floatpitch	floatx	floaty	floatz	pro_sup_l	deviation_l	flexion_l	cmc_flexion_l	cmc_abduction_l	mp_flexion_l	ip_flexion_l	2mcp_flexion_l	2mcp_abduction_l	2pm_flexion_l	2md_flexion_l	3mcp_flexion_l	3mcp_abduction_l	3pm_flexion_l	3md_flexion_l	4mcp_flexion_l	4mcp_abduction_l	4pm_flexion_l	4md_flexion_l	5mcp_flexion_l	5mcp_abduction_l	5pm_flexion_l	5md_flexion_l
-0.495000	-160.147433	-5.066637	-73.570646	0.081231	-0.181870	-0.018184	101.482256	4.024186	-0.495309	12.734663	9.927083	-26.161676	-41.418715	30.774018	7.130496	43.421104	29.798813	24.018179	4.279783	45.950519	30.440608	12.861713	-4.381954	53.107783	36.553891	1.703022	-8.199632	61.526087	42.721501
-0.485000	-160.147433	-5.066637	-73.570646	0.081226	-0.181842	-0.018203	101.495474	4.033565	-0.474055	12.712240	9.967876	-26.176227	-41.410298	30.773916	7.126858	43.423679	29.806007	24.001265	4.284408	45.946675	30.445516	12.858211	-4.382169	53.091438	36.543997	1.694439	-8.210253	61.541403	42.738010
-0.475000	-160.147433	-5.066637	-73.570646	0.081222	-0.181812	-0.018226	101.506390	4.040658	-0.451343	12.684567	10.018190	-26.183395	-41.401350	30.774066	7.121755	43.428617	29.813460	23.984767	4.289340	45.936412	30.444804	12.852211	-4.381674	53.070614	36.530952	1.682704	-8.224686	61.565265	42.757671
-0.465000	-160.147433	-5.066637	-73.570646	0.081217	-0.181783	-0.018258	101.513442	4.042587	-0.428450	12.651658	10.067582	-26.184066	-41.396884	30.777723	7.116668	43.431685	29.816868	23.973541	4.292634	45.923050	30.438771	12.845102	-4.380052	53.046524	36.515903	1.667315	-8.241171	61.592454	42.776910
-0.455000	-160.147433	-5.066637	-73.570646	0.081212	-0.181756	-0.018306	101.519969	4.038722	-0.406617	12.613883	10.107239	-26.178347	-41.398093	30.785902	7.113270	43.432171	29.815497	23.969851	4.292735	45.911498	30.430093	12.839913	-4.377202	53.020296	36.500578	1.650606	-8.258324	61.615911	42.791832
-0.445000	-160.147433	-5.066637	-73.570646	0.081208	-0.181729	-0.018377	101.533447	4.031835	-0.386938	12.571948	10.133639	-26.166009	-41.402764	30.796536	7.112281	43.432448	29.811766	23.971897	4.289343	45.905469	30.422221	12.839742	-4.373669	52.992857	36.486776	1.636199	-8.274947	61.629519	42.799661
-0.435000	-160.147433	-5.066637	-73.570646	0.081202	-0.181701	-0.018477	101.562835	4.027952	-0.369951	12.527341	10.149092	-26.147978	-41.407559	30.804854	7.112871	43.435645	29.809037	23.974499	4.283760	45.904816	30.417131	12.846076	-4.370754	52.965006	36.475710	1.626161	-8.289266	61.631396	42.800274
-0.425000	-160.147433	-5.066637	-73.570646	0.081193	-0.181665	-0.018611	101.615146	4.034792	-0.355056	12.483371	10.159273	-26.127409	-41.410352	30.804894	7.113095	43.443069	29.809219	23.971598	4.278347	45.905279	30.414201	12.858004	-4.370068	52.937631	36.467627	1.619174	-8.298546	61.625960	42.796887
-0.415000	-160.147433	-5.066637	-73.570646	0.081178	-0.181616	-0.018785	101.692624	4.059220	-0.340385	12.446124	10.169541	-26.109430	-41.411477	30.791788	7.111150	43.453174	29.811724	23.959086	4.275283	45.901562	30.411180	12.872832	-4.372653	52.911991	36.461964	1.611341	-8.299831	61.623289	42.795176
-0.405000	-160.147433	-5.066637	-73.570646	0.081155	-0.181549	-0.019005	101.791886	4.104625	-0.323573	12.423779	10.182312	-26.099747	-41.413705	30.764037	7.106603	43.463053	29.814392	23.936417	4.275429	45.892011	30.406493	12.887654	-4.378304	52.890117	36.458073	1.599327	-8.291663	61.635472	42.800885
-0.395000	-160.147433	-5.066637	-73.570646	0.081118	-0.181462	-0.019277	101.905551	4.169238	-0.303088	12.423117	10.196830	-26.103044	-41.421284	30.724661	7.100645	43.471754	29.815780	23.906367	4.278092	45.881254	30.400967	12.900726	-4.385638	52.875220	36.456165	1.583770	-8.275745	61.671149	42.816889
-0.385000	-160.147433	-5.066637	-73.570646	0.081061	-0.181355	-0.019608	102.025774	4.246273	-0.278987	12.444218	10.211016	-26.121932	-41.438480	30.680186	7.095139	43.482991	29.817128	23.873454	4.281848	45.878042	30.397456	12.911741	-4.392895	52.871471	36.457797	1.570501	-8.257456	61.730653	42.841261
-0.375000	-160.147433	-5.066637	-73.570646	0.080976	-0.181229	-0.020005	102.148422	4.326540	-0.252033	12.476629	10.223586	-26.156535	-41.468169	30.637375	7.091102	43.504773	29.822485	23.842097	4.285808	45.888785	30.398418	12.921314	-4.398874	52.882296	36.465168	1.568527	-8.244682	61.804296	42.867483
-0.365000	-160.147433	-5.066637	-73.570646	0.080854	-0.181081	-0.020485	102.276601	4.403377	-0.221219	12.500609	10.234634	-26.204510	-41.511112	30.598928	7.087730	43.545613	29.836653	23.815349	4.290358	45.910795	30.403116	12.930800	-4.403424	52.907179	36.479097	1.585782	-8.245025	61.874976	42.886748
-0.355000	-160.147433	-5.066637	-73.570646	0.080684	-0.180896	-0.021073	102.422142	4.478414	-0.181090	12.494358	10.244454	-26.261618	-41.566349	30.560215	7.082593	43.609609	29.862271	23.794317	4.296658	45.930360	30.406659	12.942943	-4.407314	52.938593	36.496704	1.624889	-8.262011	61.923893	42.890991
-0.345000	-160.147433	-5.066637	-73.570646	0.080453	-0.180647	-0.021805	102.603580	4.565582	-0.120746	12.443955	10.252251	-26.323008	-41.632428	30.509004	7.072885	43.693523	29.897948	23.777997	4.305086	45.928176	30.401981	12.962525	-4.411651	52.961645	36.510500	1.680795	-8.291782	61.936851	42.875231
-0.335000	-160.147433	-5.066637	-73.570646	0.080147	-0.180293	-0.022724	102.840103	4.691191	-0.025789	12.350129	10.256521	-26.384806	-41.708410	30.429019	7.056890	43.787515	29.938583	23.763497	4.313772	45.889523	30.383707	12.995763	-4.416992	52.957925	36.510088	1.741141	-8.322497	61.909167	42.838872
-0.325000	-160.147433	-5.066637	-73.570646	0.079741	-0.179791	-0.023875	103.142774	4.889743	0.116834	12.227412	10.256875	-26.445222	-41.793788	30.306342	7.034663	43.879089	29.977728	23.746964	4.318512	45.812843	30.351287	13.048308	-4.422287	52.912180	36.486058	1.789448	-8.337953	61.848106	42.786243
-0.315000	-160.147433	-5.066637	-73.570646	0.079204	-0.179101	-0.025297	103.506103	5.197150	0.312260	12.095947	10.255001	-26.504793	-41.887404	30.135911	7.007293	43.958238	30.010700	23.725354	4.314429	45.711182	30.309302	13.122948	-4.424078	52.818273	36.434221	1.810705	-8.324206	61.771449	42.726075
-0.305000	-160.147433	-5.066637	-73.570646	0.078492	-0.178195	-0.027014	103.903520	5.643956	0.551275	11.970484	10.252804	-26.565987	-41.986178	29.925047	6.975057	44.021098	30.036686	23.698631	4.298369	45.605470	30.264812	13.218599	-4.416530	52.680916	36.357921	1.798125	-8.275101	61.700694	42.668818
-0.295000	-160.147433	-5.066637	-73.570646	0.077559	-0.177059	-0.029041	104.289460	6.250744	0.806242	11.851821	10.249169	-26.631937	-42.083674	29.692334	6.935687	44.069760	30.058314	23.671475	4.270441	45.513322	30.223391	13.331946	-4.392691	52.511493	36.266791	1.759184	-8.192763	61.649625	42.621523
-0.285000	-160.147433	-5.066637	-73.570646	0.076363	-0.175688	-0.031372	104.608597	7.026580	1.031225	11.723558	10.240161	-26.703291	-42.167393	29.462568	6.884186	44.107623	30.078479	23.653575	4.233628	45.439025	30.185928	13.462366	-4.346833	52.318628	36.171704	1.719040	-8.083047	61.612571	42.581948
-0.275000	-160.147433	-5.066637	-73.570646	0.074865	-0.174070	-0.033995	104.809779	7.970186	1.166976	11.554422	10.226382	-26.772880	-42.214509	29.260270	6.814879	44.131997	30.095712	23.658194	4.191630	45.369081	30.147412	13.619012	-4.277057	52.096478	36.077659	1.719731	-7.950291	61.558066	42.534821
-0.265000	-160.147433	-5.066637	-73.570646	0.073035	-0.172182	-0.036903	104.860076	9.072694	1.149680	11.305337	10.225134	-26.820784	-42.188987	29.104123	6.725206	44.127594	30.100460	23.699276	4.146227	45.274758	30.097799	13.826219	-4.186808	51.816018	35.978151	1.813674	-7.796696	61.431909	42.452874
-0.255000	-160.147433	-5.066637	-73.570646	0.070845	-0.169969	-0.040102	104.754624	10.320404	0.921150	10.940757	10.279184	-26.814968	-42.045869	29.003098	6.619650	44.065229	30.074771	23.787348	4.096032	45.120717	30.024488	14.121871	-4.084110	51.425555	35.854931	2.050761	-7.628156	61.170779	42.303884
-0.245000	-160.147433	-5.066637	-73.570646	0.068265	-0.167359	-0.043616	104.520183	11.696537	0.437939	10.443199	10.454489	-26.721518	-41.746938	28.953903	6.511292	43.908860	29.996920	23.924498	4.037844	44.877282	29.915915	14.545618	-3.978540	50.864329	35.684846	2.461086	-7.462988	60.724200	42.062913
-0.235000	-160.147433	-5.066637	-73.570646	0.065268	-0.164284	-0.047471	104.212530	13.183040	-0.322752	9.826908	10.826634	-26.522836	-41.284584	28.940474	6.418454	43.630434	29.850268	24.100160	3.970037	44.532701	29.765648	15.120327	-3.877645	50.086645	35.451649	3.039970	-7.336072	60.077725	41.725832
-0.225000	-160.147433	-5.066637	-73.570646	0.061831	-0.160707	-0.051668	103.908442	14.764552	-1.361965	9.143007	11.463589	-26.234706	-40.701511	28.938348	6.355925	43.227269	29.632999	24.291575	3.895605	44.100668	29.575871	15.837093	-3.785337	49.086948	35.157725	3.745207	-7.291017	59.264974	41.317237
-0.215000	-160.147433	-5.066637	-73.570646	0.057936	-0.156643	-0.056167	103.692415	16.433750	-2.663279	8.469374	12.413253	-25.909757	-40.090608	28.925799	6.324377	42.733844	29.364226	24.472018	3.822402	43.619604	29.359275	16.654502	-3.703693	47.914585	34.830681	4.513479	-7.358510	58.357299	40.886174
-0.205000	-160.147433	-5.066637	-73.570646	0.053565	-0.152166	-0.060896	103.638962	18.192006	-4.200855	7.886260	13.697730	-25.619763	-39.567655	28.896823	6.305129	42.221732	29.083820	24.623653	3.760048	43.144861	29.139616	17.513134	-3.637021	46.673052	34.522281	5.291526	-7.529271	57.432190	40.489186
-0.195000	-160.147433	-5.066637	-73.570646	0.048689	-0.147387	-0.065764	103.795234	20.038522	-5.947495	7.448948	15.310519	-25.420739	-39.225790	28.863570	6.266178	41.786734	28.846577	24.744423	3.715051	42.739497	28.951816	18.353543	-3.594579	45.505713	34.299381	6.064135	-7.739237	56.539224	40.168966
-0.185000	-160.147433	-5.066637	-73.570646	0.043287	-0.142456	-0.070679	104.173075	21.948547	-7.879091	7.173090	17.215380	-25.315944	-39.093696	28.837611	6.177948	41.526716	28.712616	24.838071	3.686395	42.467556	28.840449	19.122821	-3.588388	44.570063	34.226651	6.856694	-7.883120	55.688429	39.940417
-0.175000	-160.147433	-5.066637	-73.570646	0.037353	-0.137543	-0.075559	104.758251	23.851791	-9.973353	7.042415	19.352524	-25.236311	-39.120648	28.793296	6.028298	41.514860	28.734136	24.886246	3.663430	42.385957	28.851903	19.764488	-3.625764	43.999005	34.341701	7.701645	-7.855736	54.870479	39.789545
